<svg xmlns="http://www.w3.org/2000/svg" width="30" height="30" viewBox="0 0 30 30"><defs><style>.a{fill:#fb7e68;fill-rule:evenodd;}.b{fill:none;}</style></defs><g transform="translate(-259 -207)"><path class="a" d="M11.274,3.618a3.04,3.04,0,0,1,5.287,0l8.463,14.966a3.016,3.016,0,0,1-2.642,4.5H5.455a3.016,3.016,0,0,1-2.643-4.5L11.274,3.618Zm4.16,14.937a1.517,1.517,0,1,1-1.517-1.509A1.513,1.513,0,0,1,15.434,18.555ZM13.917,6.486A1.513,1.513,0,0,0,12.4,7.994v5.479a1.517,1.517,0,0,0,3.033,0V7.994A1.513,1.513,0,0,0,13.917,6.486Z" transform="translate(260.075 209.373)"/><rect class="b" width="30" height="30" transform="translate(259 207)"/></g></svg>