<svg xmlns="http://www.w3.org/2000/svg" width="60" height="40" viewBox="0 0 60 40"><defs><style>.a{fill:#a1695c;}.a,.c{fill-rule:evenodd;}.b,.c{fill:#fff;}.d{fill:#fb856b;}.e{fill:none;}</style></defs><g transform="translate(-191 -60)"><g transform="translate(0 4.353)"><path class="a" d="M955.727,895.045a16.5,16.5,0,1,1-16.827,16.5,16.562,16.562,0,0,1,16.827-16.5Z" transform="translate(-747.9 -835.898)"/><circle class="b" cx="1.23" cy="1.23" r="1.23" transform="translate(202.287 72.023)"/><path class="c" d="M964.26,910.549a1.221,1.221,0,1,1-1.236,1.222,1.221,1.221,0,0,1,1.236-1.222Z" transform="translate(-751.958 -838.525)"/><path class="b" d="M957.81,919.813a13.765,13.765,0,0,1-4.579-.7c-1.779-.653-2.153-1.5-2.153-2.087h1c0,.729,2.233,1.787,5.732,1.787s5.732-1.059,5.732-1.787h1c0,.591-.374,1.434-2.153,2.087A13.768,13.768,0,0,1,957.81,919.813Z" transform="translate(-750.048 -839.622)"/><path class="c" d="M988.136,895.045a16.5,16.5,0,1,1-16.831,16.5,16.562,16.562,0,0,1,16.831-16.5Z" transform="translate(-753.564 -835.898)"/><circle class="d" cx="1.23" cy="1.23" r="1.23" transform="translate(229.242 72.022)"/><circle class="d" cx="1.152" cy="1.152" r="1.152" transform="translate(237.197 72.101)"/><path class="d" d="M990.156,919.813a13.762,13.762,0,0,1-4.579-.7c-1.779-.653-2.152-1.5-2.152-2.087h1c0,.729,2.232,1.787,5.731,1.787s5.732-1.059,5.732-1.787h1c0,.591-.374,1.434-2.153,2.087A13.768,13.768,0,0,1,990.156,919.813Z" transform="translate(-755.528 -839.622)"/></g><rect class="e" width="60" height="40" transform="translate(191 60)"/></g></svg>