<svg xmlns="http://www.w3.org/2000/svg" width="30" height="30" viewBox="0 0 30 30"><defs><style>.a{fill:#fb7e68;fill-rule:evenodd;}.b{fill:none;}</style></defs><g transform="translate(-222 -207)"><path class="a" d="M24.031,13.016A11.016,11.016,0,1,1,13.016,2,11.016,11.016,0,0,1,24.031,13.016Zm-9.639,5.508a1.377,1.377,0,1,1-1.377-1.377A1.377,1.377,0,0,1,14.393,18.524ZM13.016,6.131a1.377,1.377,0,0,0-1.377,1.377V13.42a1.377,1.377,0,0,0,2.754,0V7.508A1.377,1.377,0,0,0,13.016,6.131Z" transform="translate(223.969 209)"/><rect class="b" width="30" height="30" transform="translate(222 207)"/></g></svg>